<?xml version="1.0" encoding="UTF-8"?>
<svg version="1.1" xmlns="http://www.w3.org/2000/svg" width="48" height="48">
<path d="M0 0 C0.72767578 0.29583984 1.45535156 0.59167969 2.20507812 0.89648438 C4.30078125 1.80078125 4.30078125 1.80078125 7.6875 3.6875 C8.39916992 5.80541992 8.39916992 5.80541992 8.6875 7.6875 C6.45958002 8.81502649 4.23024113 9.93958139 2 11.0625 C1.06124023 11.53816406 1.06124023 11.53816406 0.10351562 12.0234375 C-1.69411543 12.92695887 -3.50314029 13.80770133 -5.3125 14.6875 C-6.16457031 15.11289062 -7.01664063 15.53828125 -7.89453125 15.9765625 C-13.72179828 17.6899108 -19.32629392 14.67480237 -24.625 12.375 C-25.35267578 12.07916016 -26.08035156 11.78332031 -26.83007812 11.47851562 C-28.92578125 10.57421875 -28.92578125 10.57421875 -32.3125 8.6875 C-33.02416992 6.56958008 -33.02416992 6.56958008 -33.3125 4.6875 C-29.80062804 2.27935923 -27.58593092 1.32120592 -23.3125 1.6875 C-23.3125 1.0275 -23.3125 0.3675 -23.3125 -0.3125 C-21.94734485 -1.019347 -20.56972137 -1.70213646 -19.1875 -2.375 C-18.42179687 -2.75785156 -17.65609375 -3.14070312 -16.8671875 -3.53515625 C-10.96810319 -5.33013756 -5.37679815 -2.33369674 0 0 Z M-18.3125 3.6875 C-17.6525 4.3475 -16.9925 5.0075 -16.3125 5.6875 C-15.3225 5.3575 -14.3325 5.0275 -13.3125 4.6875 C-14.9625 4.3575 -16.6125 4.0275 -18.3125 3.6875 Z " fill="#000067" transform="translate(36.3125,13.3125)"/>
<path d="M0 0 C0.85271484 0.30744141 0.85271484 0.30744141 1.72265625 0.62109375 C10.20813037 3.58180175 15.47384041 4.7001793 23.86328125 0.91015625 C26 0 26 0 28 0 C28.32105822 3.53164047 28.48213712 5.35715051 26.3125 8.25 C20.84012943 12.39125341 15.66800206 12.46621803 9 12 C7.65819914 11.70257883 6.3204476 11.38119157 5 11 C5 12.98 5 14.96 5 17 C3.34385343 17.38218767 1.67542976 17.71395102 0 18 C-0.33 17.67 -0.66 17.34 -1 17 C-0.90903444 14.13311752 -0.76232012 11.29699485 -0.5625 8.4375 C-0.51029297 7.63119141 -0.45808594 6.82488281 -0.40429688 5.99414062 C-0.27422624 3.99578262 -0.13770944 1.99784614 0 0 Z " fill="#000067" transform="translate(10,26)"/>
</svg>
